<svg xmlns="http://www.w3.org/2000/svg" width="50" height="50" viewBox="0 0 50 50">
  <g id="Group_57028" data-name="Group 57028" transform="translate(-20 -403)">
    <rect id="Rectangle_5393" data-name="Rectangle 5393" width="50" height="50" rx="10" transform="translate(20 403)" fill="#ff65c5" opacity="0.1"/>
    <path id="Path_16770" data-name="Path 16770" d="M59.742,522.5a2.211,2.211,0,0,1-.26,1.068,1.939,1.939,0,0,1-1.716.968l-1.342-.019a2.014,2.014,0,0,1-2.005-2.051,1.569,1.569,0,0,0-.241-.859,1.833,1.833,0,0,0-2.423-.7,1.987,1.987,0,0,1-2.722-.776l-.668-1.156a1.989,1.989,0,0,1,.685-2.754,1.818,1.818,0,0,0,.611-2.439,1.523,1.523,0,0,0-.623-.638,2.076,2.076,0,0,1-.77-.757,2.05,2.05,0,0,1-.008-2.013l.66-1.164a1.917,1.917,0,0,1,1.7-1,2.042,2.042,0,0,1,1.05.3,1.571,1.571,0,0,0,.842.229,1.762,1.762,0,0,0,1.761-1.754A1.964,1.964,0,0,1,56.26,505l1.311,0a2.042,2.042,0,0,1,2.017,2.033,1.887,1.887,0,0,0,1.807,1.8,1.49,1.49,0,0,0,.845-.227,1.714,1.714,0,0,1,1.02-.272,2.11,2.11,0,0,1,1.734,1.006l.692,1.2a2.067,2.067,0,0,1,.009,2.013,1.711,1.711,0,0,1-.749.739,1.487,1.487,0,0,0-.619.618,1.9,1.9,0,0,0,.663,2.475,2.029,2.029,0,0,1,.747,2.754l-.653,1.137a1.947,1.947,0,0,1-2.718.73,1.751,1.751,0,0,0-2.395.657A1.489,1.489,0,0,0,59.742,522.5Zm-4.119-10.151a2.775,2.775,0,1,0,3.749,1.056A2.741,2.741,0,0,0,55.623,512.352Z" transform="translate(-12 -87)" fill="#ff65c5"/>
  </g>
</svg>
