<svg xmlns="http://www.w3.org/2000/svg" width="50" height="50" viewBox="0 0 50 50">
  <g id="Group_57031" data-name="Group 57031" transform="translate(-20 -539)">
    <rect id="Rectangle_5395" data-name="Rectangle 5395" width="50" height="50" rx="10" transform="translate(20 539)" fill="#ff65c5" opacity="0.1"/>
    <path id="Path_16776" data-name="Path 16776" d="M51.25,643.706A3.688,3.688,0,0,0,49,647.1v1.91h0V653h0v1.909a3.689,3.689,0,0,0,2.25,3.4l5.925,2.509a2.462,2.462,0,0,0,3.258-1.386,14.027,14.027,0,0,0,1.666-.089,2.853,2.853,0,0,0,2.726-2.727,21.037,21.037,0,0,0,.092-2.573.425.425,0,0,0-.653-.36l-.667.42h0a1.4,1.4,0,0,0-.212.148.616.616,0,0,0-.177.318,1.391,1.391,0,0,0-.014.262,13,13,0,0,1-.074,1.556,1.181,1.181,0,0,1-1.25,1.25,11.223,11.223,0,0,1-1.277.071V644.484a10.986,10.986,0,0,1,1.277.071,1.181,1.181,0,0,1,1.25,1.25,11.75,11.75,0,0,1,.073,1.379h0a1.4,1.4,0,0,0,.015.263.61.61,0,0,0,.176.316,1.466,1.466,0,0,0,.213.148l.818.515a.328.328,0,0,0,.5-.277,21.062,21.062,0,0,0-.092-2.574,2.853,2.853,0,0,0-2.726-2.726,13.538,13.538,0,0,0-1.606-.088,2.462,2.462,0,0,0-3.318-1.564Zm14.159,6.633a.8.8,0,0,1,0,1.328l-2.611,1.78a.8.8,0,0,1-1.257-.664v-3.56a.8.8,0,0,1,1.257-.664Z" transform="translate(-12 -87)" fill="#ff65c5"/>
  </g>
</svg>
