<svg xmlns="http://www.w3.org/2000/svg" width="20" height="20" viewBox="0 0 20 20">
  <g id="vuesax_outline_notification-bing" data-name="vuesax/outline/notification-bing" transform="translate(-108 -188)">
    <g id="notification-bing" transform="translate(108 188)">
      <path id="Vector" d="M.625,4.025A.63.63,0,0,1,0,3.4V.625A.63.63,0,0,1,.625,0,.63.63,0,0,1,1.25.625V3.4A.624.624,0,0,1,.625,4.025Z" transform="translate(9.375 4.742)" fill="#1d2733"/>
      <path id="Vector-2" data-name="Vector" d="M8.058,15.925A19.961,19.961,0,0,1,1.724,14.9,2.475,2.475,0,0,1,.141,13.425a2.506,2.506,0,0,1,.242-2.15L1.441,9.508a3.757,3.757,0,0,0,.442-1.583V6.175a6.175,6.175,0,0,1,12.35,0v1.75a3.791,3.791,0,0,0,.442,1.583l1.058,1.767A2.476,2.476,0,0,1,14.391,14.9,19.73,19.73,0,0,1,8.058,15.925Zm0-14.667A4.929,4.929,0,0,0,3.133,6.183v1.75a4.95,4.95,0,0,1-.617,2.225L1.458,11.933a1.229,1.229,0,0,0-.142,1.075,1.231,1.231,0,0,0,.808.717,18.937,18.937,0,0,0,11.883,0,1.186,1.186,0,0,0,.758-.733,1.217,1.217,0,0,0-.1-1.058l-1.058-1.767a4.95,4.95,0,0,1-.617-2.225V6.192A4.944,4.944,0,0,0,8.058,1.258Z" transform="translate(1.959 1.033)" fill="#1d2733"/>
      <path id="Vector-3" data-name="Vector" d="M3.4,3.4A3.423,3.423,0,0,1,1,2.4,3.423,3.423,0,0,1,0,0H1.25a2.159,2.159,0,0,0,.633,1.517A2.159,2.159,0,0,0,3.4,2.15,2.155,2.155,0,0,0,5.55,0H6.8A3.4,3.4,0,0,1,3.4,3.4Z" transform="translate(6.6 15.683)" fill="#1d2733"/>
      <path id="Vector-4" data-name="Vector" d="M0,0H20V20H0Z" fill="none" opacity="0"/>
      <circle id="Ellipse_3" data-name="Ellipse 3" cx="3" cy="3" r="3" transform="translate(12)" fill="#ff3131" opacity="0"/>
    </g>
  </g>
</svg>
