<svg xmlns="http://www.w3.org/2000/svg" width="30" height="30" viewBox="0 0 30 30">
  <g id="Group_56964" data-name="Group 56964" transform="translate(-20 -254)">
    <rect id="Rectangle_1980" data-name="Rectangle 1980" width="30" height="30" rx="6" transform="translate(20 254)" fill="#ff65c5"/>
    <path id="Path_1443" data-name="Path 1443" d="M14,12.767,11.094,9.862a6.029,6.029,0,0,0,1.233-3.7A6.126,6.126,0,0,0,6.164,0,6.126,6.126,0,0,0,0,6.164a6.126,6.126,0,0,0,6.164,6.164,6.029,6.029,0,0,0,3.7-1.233L12.767,14ZM1.761,6.164a4.36,4.36,0,0,1,4.4-4.4,4.36,4.36,0,0,1,4.4,4.4,4.36,4.36,0,0,1-4.4,4.4A4.36,4.36,0,0,1,1.761,6.164Z" transform="translate(28 262)" fill="#fff"/>
  </g>
</svg>
