<svg xmlns="http://www.w3.org/2000/svg" width="24" height="24" viewBox="0 0 24 24">
  <g id="vuesax_bold_box-remove" data-name="vuesax/bold/box-remove" transform="translate(-364 -188)">
    <g id="box-remove">
      <g id="Group">
        <path id="Vector" d="M13.87,3.28,8.22.24a2.02,2.02,0,0,0-1.91,0L.67,3.28A1.32,1.32,0,0,0,0,4.43,1.277,1.277,0,0,0,.67,5.58L6.32,8.62a2.029,2.029,0,0,0,.95.24,2,2,0,0,0,.95-.24l5.65-3.04a1.3,1.3,0,0,0,.67-1.15A1.32,1.32,0,0,0,13.87,3.28Z" transform="translate(367.73 190.03)" fill="#fff"/>
        <path id="Vector-2" data-name="Vector" d="M7.12,2.761,1.87.141A1.284,1.284,0,0,0,0,1.291v4.96a2.254,2.254,0,0,0,1.25,2.02l5.25,2.62a1.3,1.3,0,0,0,.58.14,1.4,1.4,0,0,0,.68-.19,1.3,1.3,0,0,0,.61-1.1V4.781A2.291,2.291,0,0,0,7.12,2.761Z" transform="translate(366 196.949)" fill="#fff"/>
        <path id="Vector-3" data-name="Vector" d="M8.36,1.291v2.46a5.374,5.374,0,0,0-1.5-.2,6.015,6.015,0,0,0-3.74,1.31A5.914,5.914,0,0,0,.86,9.551,5.446,5.446,0,0,0,1.05,11a1.089,1.089,0,0,1-.44-.17A1.267,1.267,0,0,1,0,9.741V4.781a2.263,2.263,0,0,1,1.24-2.02L6.49.141a1.284,1.284,0,0,1,1.87,1.15Z" transform="translate(375.64 196.949)" fill="#fff"/>
      </g>
      <path id="Vector-4" data-name="Vector" d="M0,0H24V24H0Z" transform="translate(364 188)" fill="none" opacity="0"/>
      <path id="Vector-5" data-name="Vector" d="M7.67,1.321a4.489,4.489,0,0,0-6.36,0,4.423,4.423,0,0,0-1.18,2.1A3.953,3.953,0,0,0,.01,4.7v.05a1.646,1.646,0,0,0,.02.21l.01.01V5a4.3,4.3,0,0,0,1.27,2.68,4.473,4.473,0,0,0,4.26,1.18,4.688,4.688,0,0,0,1.27-.53,3.662,3.662,0,0,0,.83-.65,4.348,4.348,0,0,0,1.27-2.69c.01,0,.01-.02.01-.03a.82.82,0,0,0,.02-.22.433.433,0,0,0,.01-.05A4.431,4.431,0,0,0,7.67,1.321ZM6.22,6.211a.754.754,0,0,1-1.06,0l-.66-.66-.68.68a.75.75,0,0,1-1.06-1.06l.68-.68-.66-.66a.753.753,0,1,1,1.07-1.06l.65.66.63-.64A.757.757,0,0,1,6.2,3.861l-.64.63.66.65A.749.749,0,0,1,6.22,6.211Z" transform="translate(378.01 201.999)" fill="#fff"/>
    </g>
  </g>
</svg>
