<svg xmlns="http://www.w3.org/2000/svg" width="17.556" height="17.512" viewBox="0 0 17.556 17.512">
  <g id="Group_55725" data-name="Group 55725" transform="translate(-221.649 -182.505)">
    <path id="Path_99" data-name="Path 99" d="M290.3,187.155c0,1.2.008,2.391-.006,3.586a.548.548,0,0,0,.324.562,2.39,2.39,0,0,1,0,4.2.555.555,0,0,0-.328.563c.015.969.008,1.938,0,2.907,0,.686-.3,1.061-.847,1.07-.564.009-.882-.378-.883-1.084,0-.953-.012-1.906.006-2.859a.587.587,0,0,0-.34-.6,2.386,2.386,0,0,1,.025-4.2.548.548,0,0,0,.312-.569q-.01-3.586,0-7.171c0-.607.271-.963.747-1.014.585-.063.977.315.981.977.008,1.211,0,2.423,0,3.634Z" transform="translate(-59.002 -0.03)" fill="#fff"/>
    <path id="Path_100" data-name="Path 100" d="M224.934,195.676c0,1.116.006,2.231,0,3.347,0,.654-.319,1-.862.994-.517-.01-.817-.364-.83-.982,0-.21,0-.42,0-.631,0-2,0-4.01.01-6.015a.594.594,0,0,0-.338-.608,2.407,2.407,0,0,1,.024-4.247.718.718,0,0,0,.293-.515c.026-1.18.01-2.361.015-3.541,0-.614.313-.967.834-.974s.847.329.853.951q.018,1.77,0,3.541a.572.572,0,0,0,.328.572,2.39,2.39,0,0,1-.013,4.23.566.566,0,0,0-.314.579c.01,1.1,0,2.2,0,3.3Z" transform="translate(0 0)" fill="#fff"/>
    <path id="Path_101" data-name="Path 101" d="M353.923,195.7c0-1.115-.009-2.229.005-3.344a.56.56,0,0,0-.331-.567,2.388,2.388,0,0,1,.009-4.224.563.563,0,0,0,.321-.573c-.01-1.211-.014-2.423,0-3.634a.8.8,0,0,1,.849-.853.83.83,0,0,1,.834.878c.007.161,0,.323,0,.485,0,1.034.007,2.068-.009,3.1a.586.586,0,0,0,.34.608,2.388,2.388,0,0,1,0,4.2.594.594,0,0,0-.345.6c.012,2.229.009,4.458,0,6.688a.831.831,0,0,1-.714.937c-.582.076-.965-.266-.972-.913C353.914,197.962,353.924,196.831,353.923,195.7Z" transform="translate(-118.001 0)" fill="#fff"/>
  </g>
</svg>
